<?xml version="1.0" standalone="no"?>
<!DOCTYPE svg PUBLIC "-//W3C//DTD SVG 20010904//EN"
 "http://www.w3.org/TR/2001/REC-SVG-20010904/DTD/svg10.dtd">
<svg version="1.0" xmlns="http://www.w3.org/2000/svg"
 width="300.000000pt" height="300.000000pt" viewBox="0 0 300.000000 300.000000"
 preserveAspectRatio="xMidYMid meet">

<g transform="translate(0.000000,300.000000) scale(0.100000,-0.100000)"
fill="#000000" stroke="none">
<path d="M1330 2919 c-91 -12 -202 -37 -290 -66 -143 -48 -343 -159 -448 -250
l-33 -28 88 -87 88 -88 60 45 c154 117 366 203 550 223 l60 7 3 128 c1 70 -1
126 -5 126 -4 -1 -37 -5 -73 -10z"/>
<path d="M1592 2801 l3 -126 60 -7 c185 -20 390 -103 544 -219 l65 -49 89 87
88 88 -33 29 c-58 50 -208 145 -292 185 -141 67 -326 119 -479 134 l-48 5 3
-127z"/>
<path d="M1184 2234 c-162 -157 -224 -223 -224 -239 0 -29 74 -97 100 -93 11
2 115 96 232 209 l213 206 215 -209 c118 -114 223 -208 232 -208 27 0 98 69
98 95 0 29 -439 455 -469 455 -11 0 -32 -11 -48 -24 l-28 -24 -28 24 c-16 13
-37 24 -48 24 -12 0 -106 -83 -245 -216z m-94 -214 c11 -11 20 -24 20 -30 0
-13 -37 -50 -50 -50 -13 0 -50 37 -50 50 0 6 9 19 20 30 11 11 25 20 30 20 6
0 19 -9 30 -20z m890 0 c11 -11 20 -24 20 -30 0 -5 -9 -19 -20 -30 -11 -11
-24 -20 -30 -20 -5 0 -19 9 -30 20 -11 11 -20 25 -20 30 0 6 9 19 20 30 11 11
25 20 30 20 6 0 19 -9 30 -20z"/>
<path d="M389 2398 c-95 -115 -194 -294 -243 -442 -27 -82 -61 -236 -69 -319
l-5 -48 127 3 126 3 7 60 c19 179 104 392 212 535 23 30 45 60 48 66 4 6 -32
50 -80 97 l-88 87 -35 -42z"/>
<path d="M2488 2353 l-88 -88 45 -60 c117 -154 203 -366 223 -550 l7 -60 126
-3 127 -3 -5 48 c-8 83 -42 237 -69 319 -49 148 -157 341 -251 452 l-28 33
-87 -88z"/>
<path d="M803 2020 c-21 -8 -23 -16 -23 -73 0 -74 12 -95 60 -99 l34 -3 62
-263 c34 -145 69 -274 78 -287 9 -13 33 -29 53 -34 51 -15 825 -15 876 0 20 5
44 21 53 34 8 13 43 142 78 287 l62 263 59 3 c33 2 63 9 67 15 4 7 8 44 8 83
0 83 -1 84 -107 84 l-63 0 0 -36 c0 -31 -8 -45 -48 -85 -86 -85 -120 -80 -241
36 l-88 85 -218 0 -218 0 -88 -85 c-121 -116 -155 -121 -241 -36 -40 40 -48
54 -48 85 0 36 0 36 -42 35 -24 0 -53 -4 -65 -9z m355 -257 l3 -43 -50 0 -51
0 0 46 0 45 48 -3 47 -3 3 -42z m182 2 l0 -45 -45 0 -45 0 0 45 0 45 45 0 45
0 0 -45z m190 0 l0 -45 -50 0 -50 0 0 38 c0 21 3 42 7 45 3 4 26 7 50 7 l43 0
0 -45z m188 -2 l3 -43 -50 0 -51 0 0 46 0 45 48 -3 47 -3 3 -42z m182 2 l0
-45 -45 0 -45 0 0 45 0 45 45 0 45 0 0 -45z m-745 -185 l0 -45 -47 -3 -48 -3
0 51 0 51 48 -3 47 -3 0 -45z m185 0 l0 -50 -45 0 -45 0 0 50 0 50 45 0 45 0
0 -50z m188 -3 l3 -48 -48 3 c-46 3 -48 4 -51 36 -5 54 2 64 50 60 l43 -3 3
-48z m187 3 l0 -45 -47 -3 -48 -3 0 44 c0 24 3 47 7 51 4 4 25 6 48 4 l40 -3
0 -45z m185 0 l0 -50 -45 0 -45 0 0 50 0 50 45 0 45 0 0 -50z m-560 -180 l0
-50 -45 0 -45 0 0 50 0 50 45 0 45 0 0 -50z m188 -2 l3 -48 -50 0 -51 0 0 43
c0 24 3 47 7 51 4 4 25 6 48 4 l40 -3 3 -47z m190 0 l3 -48 -50 0 -51 0 0 43
c0 24 3 47 7 51 4 4 25 6 48 4 l40 -3 3 -47z"/>
<path d="M77 1363 c15 -153 67 -338 134 -479 40 -84 135 -234 185 -292 l29
-33 88 88 87 89 -49 65 c-116 154 -199 359 -219 544 l-7 60 -126 3 -127 3 5
-48z"/>
<path d="M2677 1403 c-4 -3 -7 -22 -7 -42 0 -48 -43 -220 -74 -300 -35 -88
-89 -183 -147 -260 l-49 -65 87 -89 88 -88 29 33 c50 58 145 208 185 292 67
141 119 326 134 479 l5 47 -123 0 c-67 0 -125 -3 -128 -7z"/>
<path d="M647 512 l-87 -88 42 -35 c115 -95 294 -194 442 -243 82 -27 236 -61
319 -69 l48 -5 -3 127 -3 126 -60 7 c-179 19 -392 104 -535 212 -30 23 -60 45
-66 48 -6 4 -50 -32 -97 -80z"/>
<path d="M2199 551 c-154 -116 -359 -199 -544 -219 l-60 -7 -3 -126 -3 -127
48 5 c153 15 338 67 479 134 84 40 234 135 292 185 l33 29 -88 88 -89 87 -65
-49z"/>
</g>
</svg>
